<svg width="64" height="64" viewBox="0 0 64 64" fill="none" xmlns="http://www.w3.org/2000/svg">
<rect width="64" height="64" rx="20" fill="#E8F2FF"/>
<rect width="64" height="64" rx="20" fill="#F8F9FD"/>
<path d="M47.3188 22.1032L41.8968 16.6812C41.7859 16.5687 41.6374 16.5078 41.4796 16.5078C41.3233 16.5078 41.1734 16.5687 41.0624 16.6812L32.4108 25.3312L33.2467 26.1656L41.4795 17.9328L46.0655 22.5204L44.6312 23.9548L42.0327 21.3548C41.8015 21.1251 41.4296 21.1251 41.1984 21.3548C40.9671 21.5876 40.9671 21.9594 41.1984 22.1891L43.7968 24.7891L42.153 26.4329L40.5124 24.7922C40.2812 24.5594 39.9093 24.5594 39.678 24.7922C39.4468 25.0219 39.4468 25.3954 39.678 25.6266L41.3187 27.2672L39.6749 28.911L37.0749 26.311C36.8437 26.0798 36.4718 26.0798 36.2406 26.311C36.0093 26.5423 36.0093 26.9141 36.2406 27.1454L38.8406 29.7454L37.8374 30.7485L38.6718 31.5829L47.3234 22.9328C47.5484 22.7078 47.5484 22.3344 47.3187 22.1032L47.3188 22.1032Z" fill="#4F46BA"/>
<path d="M29.7516 38.8344L27.1532 36.236C26.9219 36.0047 26.55 36.0047 26.3188 36.236C26.0876 36.4672 26.0876 36.8391 26.3188 37.0703L28.9172 39.6688L27.2735 41.3141L25.6328 39.6734C25.4016 39.4422 25.0282 39.4422 24.7969 39.6734C24.5657 39.9047 24.5657 40.2766 24.7969 40.5078L26.4376 42.1484L24.7938 43.7906L22.1954 41.1938C21.9641 40.9609 21.5907 40.9609 21.3594 41.1938C21.1282 41.4234 21.1282 41.7969 21.3594 42.0281L23.9579 44.6266L22.5235 46.0625L17.9375 41.4733L26.1687 33.2421L25.3344 32.4077L16.6844 41.0561C16.4531 41.2874 16.4531 41.6592 16.6844 41.8905L22.1064 47.3141C22.2173 47.4235 22.3657 47.4875 22.5236 47.4875C22.6798 47.4875 22.8298 47.4234 22.9408 47.3141L31.5908 38.6641L30.7548 37.8297L29.7516 38.8344Z" fill="#4F46BA"/>
<path d="M44.6752 39.2657L25.116 19.7065L23.8098 18.3971C22.8848 17.469 21.302 17.4128 20.4457 18.2721L18.2722 20.4471C17.3816 21.3378 17.4394 22.8471 18.3988 23.808L39.266 44.6769C39.5379 44.9456 39.991 45.3925 44.9708 46.5206C45.0739 46.5425 45.177 46.555 45.2802 46.555C45.6271 46.555 45.9505 46.4237 46.1895 46.1831C46.4958 45.8737 46.6192 45.4222 46.5208 44.9738C45.3927 39.9846 44.9427 39.5345 44.6755 39.2657L44.6752 39.2657ZM19.2344 22.9721C18.7328 22.4721 18.675 21.7127 19.1063 21.2799L21.2782 19.108C21.4641 18.9205 21.725 18.8174 22.0094 18.8174C22.3563 18.8174 22.7078 18.9689 22.9719 19.233L23.8625 20.1237L20.1234 23.8627L19.2344 22.9721ZM39.1156 41.3253C38.9093 41.2612 38.6844 41.3159 38.5312 41.4659C38.3781 41.6175 38.3172 41.8393 38.375 42.0472L38.4015 42.1425L20.9596 24.6973L24.7002 20.9582L42.0298 38.291C41.8267 38.2379 41.6126 38.291 41.4641 38.4363C41.311 38.5879 41.2516 38.8097 41.3095 39.0144L41.6173 40.1238L40.5829 39.8082C40.3767 39.7441 40.1517 39.8003 39.9986 39.9519C39.8439 40.1003 39.7845 40.3253 39.8423 40.5331L40.1501 41.6394L39.1156 41.3253ZM40.1 43.8409L39.8031 42.769L40.8312 43.0847C41.0406 43.1456 41.2718 43.0878 41.425 42.9331C41.575 42.7815 41.6343 42.5612 41.575 42.3565L41.2687 41.2534L42.3 41.5675C42.5046 41.6316 42.7296 41.5753 42.8843 41.4237C43.0374 41.2753 43.0984 41.0519 43.0406 40.8456L42.7296 39.7253L43.764 40.0284L43.8421 40.105C43.9265 40.1894 44.0765 40.4519 44.3077 41.1519L41.1546 44.3081C40.4484 44.0722 40.1874 43.9253 40.0999 43.8409L40.1 43.8409ZM45.3516 45.3534C45.3375 45.3659 45.3125 45.3753 45.2828 45.3753L45.2359 45.3675C44.0547 45.1018 43.1484 44.8753 42.4406 44.6847L44.6875 42.4378C44.8781 43.144 45.1031 44.0503 45.3718 45.23C45.3797 45.2831 45.3718 45.3316 45.3515 45.3534L45.3516 45.3534Z" fill="#4F46BA"/>
</svg>
