<svg width="40" height="40" viewBox="0 0 40 40" fill="none" xmlns="http://www.w3.org/2000/svg">
<path d="M20.8 3.20001C14.2952 3.20001 8.3936 6.95157 5.6188 12.8H3.20004C2.92348 12.8 2.66568 12.9438 2.52036 13.1797C2.37505 13.4156 2.36099 13.7094 2.48443 13.9578L5.68443 20.3578C5.82036 20.6281 6.09691 20.8 6.40007 20.8C6.70323 20.8 6.97975 20.6281 7.11571 20.3578L10.3157 13.9578C10.4391 13.7094 10.4266 13.4156 10.2798 13.1797C10.1345 12.9438 9.87665 12.8 9.60009 12.8H7.41417C10.0485 7.90321 15.1734 4.80001 20.8002 4.80001C29.1814 4.80001 36.0002 11.6188 36.0002 20C36.0002 28.3812 29.1814 35.2 20.8002 35.2C14.5754 35.2 9.04217 31.4688 6.70657 25.6936C6.54095 25.2842 6.07689 25.0874 5.66437 25.2514C5.25501 25.417 5.05657 25.8826 5.22217 26.2936C7.80497 32.6764 13.919 36.8 20.8002 36.8C30.0642 36.8 37.6002 29.264 37.6002 20C37.6002 10.736 30.0642 3.20001 20.8002 3.20001H20.8ZM6.4 18.2108L4.49376 14.3999H8.30468L6.4 18.2108ZM24 21.5999C24 22.9233 22.9234 23.9999 21.6 23.9999V25.1999C21.6 25.6421 21.2422 25.9999 20.8 25.9999C20.3578 25.9999 20 25.6421 20 25.1999V23.9999H18.8C18.3578 23.9999 18 23.6421 18 23.1999C18 22.7577 18.3578 22.3999 18.8 22.3999H21.6C22.0406 22.3999 22.4 22.0405 22.4 21.5999C22.4 21.1593 22.0406 20.7999 21.6 20.7999H20C18.6766 20.7999 17.6 19.7233 17.6 18.3999C17.6 17.0764 18.6766 15.9999 20 15.9999V14.7999C20 14.3577 20.3578 13.9999 20.8 13.9999C21.2422 13.9999 21.6 14.3577 21.6 14.7999V15.9999H22.8C23.2422 15.9999 23.6 16.3577 23.6 16.7999C23.6 17.2421 23.2422 17.5999 22.8 17.5999H20C19.5594 17.5999 19.2 17.9593 19.2 18.3999C19.2 18.8405 19.5594 19.1999 20 19.1999H21.6C22.9234 19.1999 24 20.2764 24 21.5999ZM20.8 29.1999C15.7264 29.1999 11.6 25.0735 11.6 19.9999C11.6 14.9263 15.7264 10.7999 20.8 10.7999C25.8736 10.7999 30 14.9263 30 19.9999C30 25.0735 25.8736 29.1999 20.8 29.1999ZM20.8 12.3999C16.6092 12.3999 13.2 15.8093 13.2 19.9999C13.2 24.1905 16.6094 27.5999 20.8 27.5999C24.9906 27.5999 28.4 24.1905 28.4 19.9999C28.4 15.8093 24.9906 12.3999 20.8 12.3999Z" fill="black"/>
</svg>
