<svg width="15" height="13" viewBox="0 0 15 13" fill="none" xmlns="http://www.w3.org/2000/svg">
<path d="M6.44828 1.43824C6.7763 0.581797 7.98796 0.581797 8.31598 1.43824L9.38562 4.23102C9.53379 4.6179 9.90518 4.87336 10.3195 4.87336L13.3829 4.87336C14.3909 4.87336 14.7657 6.19577 13.9076 6.72464L11.7275 8.06838C11.3183 8.32063 11.1464 8.82839 11.3184 9.27733L12.2146 11.6173C12.5566 12.5104 11.5702 13.3281 10.756 12.8263L7.90683 11.0701C7.58513 10.8718 7.17913 10.8718 6.85743 11.0701L4.00824 12.8263C3.19409 13.3281 2.20763 12.5104 2.54969 11.6173L3.4459 9.27733C3.61785 8.82839 3.446 8.32063 3.03675 8.06838L0.856648 6.72464C-0.00140733 6.19577 0.373399 4.87336 1.38135 4.87336L4.44479 4.87336C4.85908 4.87336 5.23047 4.6179 5.37864 4.23102L6.44828 1.43824Z" fill="#F9896B"/>
</svg>
